<svg xmlns="http://www.w3.org/2000/svg" viewBox="0 0 279 90" class="iconLeft">
    <g id="c0cb47c6-286e-4950-9f9e-86ac08cceb0b" fill="#2e3034"
       transform="matrix(4.285714149475098,0,0,4.285714149475098,108.9285659790039,14.142858505249023)">
        <path d="M2.90 10.56L2.90 10.56L2.90 11.46L2.90 11.46Q2.90 11.95 2.91 12.28L2.91 12.28L2.91 12.28Q2.92 12.62 2.97 12.92L2.97 12.92L3.05 13.57L3.93 13.73L3.93 14.20L2.09 14.17L0.37 14.20L0.37 13.73L1.12 13.57L1.19 12.92L1.19 12.92Q1.22 12.62 1.24 12.23L1.24 12.23L1.24 12.23Q1.26 11.84 1.26 11.46L1.26 11.46L1.26 6.40L1.26 6.22L1.26 6.06L1.26 6.06Q1.26 5.81 1.25 5.55L1.25 5.55L1.25 5.55Q1.24 5.28 1.20 5.03L1.20 5.03L1.13 4.19L0.25 4.02L0.25 3.54L0.25 3.54Q0.55 3.54 0.80 3.50L0.80 3.50L0.80 3.50Q1.18 3.43 1.36 3.41L1.36 3.41L1.36 3.41Q1.75 3.35 1.94 3.31L1.94 3.31L1.94 3.31Q2.13 3.26 2.48 3.17L2.48 3.17L2.97 3.17L2.91 4.25L2.91 4.25Q3.40 3.69 3.94 3.47L3.94 3.47L3.94 3.47Q4.22 3.35 4.51 3.28L4.51 3.28L4.51 3.28Q4.80 3.22 5.08 3.22L5.08 3.22L5.08 3.22Q6.40 3.22 7.21 4.20L7.21 4.20L7.21 4.20Q8.02 5.18 8.02 6.77L8.02 6.77L8.02 6.77Q8.02 8.44 6.92 9.64L6.92 9.64L6.92 9.64Q6.37 10.23 5.72 10.54L5.72 10.54L5.72 10.54Q5.06 10.84 4.29 10.84L4.29 10.84L4.29 10.84Q3.93 10.84 3.59 10.78L3.59 10.78L3.59 10.78Q3.25 10.72 2.90 10.56ZM2.88 6.42L2.88 9.54L3.26 9.76L3.26 9.76Q3.47 9.85 3.75 9.91L3.75 9.91L3.75 9.91Q4.04 9.97 4.41 9.97L4.41 9.97L4.41 9.97Q5.18 9.97 5.73 9.16L5.73 9.16L5.73 9.16Q6.27 8.29 6.27 7.15L6.27 7.15L6.27 7.15Q6.27 6.49 6.14 6.03L6.14 6.03L6.14 6.03Q6.02 5.56 5.73 5.16L5.73 5.16L5.73 5.16Q5.21 4.40 4.30 4.40L4.30 4.40L4.30 4.40Q3.61 4.40 3.25 4.91L3.25 4.91L3.25 4.91Q2.88 5.43 2.88 6.42L2.88 6.42ZM16.47 7.03L16.47 7.03L16.47 7.03Q16.47 8.75 15.39 9.79L15.39 9.79L15.39 9.79Q14.32 10.84 12.55 10.84L12.55 10.84L12.55 10.84Q10.79 10.84 9.72 9.79L9.72 9.79L9.72 9.79Q8.65 8.75 8.65 7.03L8.65 7.03L8.65 7.03Q8.65 5.33 9.73 4.27L9.73 4.27L9.73 4.27Q10.81 3.22 12.55 3.22L12.55 3.22L12.55 3.22Q14.32 3.22 15.39 4.27L15.39 4.27L15.39 4.27Q16.47 5.31 16.47 7.03ZM14.73 7.03L14.73 7.03L14.73 7.03Q14.73 5.71 14.14 4.90L14.14 4.90L14.14 4.90Q13.55 4.09 12.55 4.09L12.55 4.09L12.55 4.09Q11.56 4.09 10.97 4.89L10.97 4.89L10.97 4.89Q10.39 5.70 10.39 7.03L10.39 7.03L10.39 7.03Q10.39 8.33 10.98 9.15L10.98 9.15L10.98 9.15Q11.57 9.97 12.55 9.97L12.55 9.97L12.55 9.97Q13.52 9.97 14.13 9.17L14.13 9.17L14.13 9.17Q14.73 8.36 14.73 7.03ZM18.72 7.08L18.72 7.94L18.72 7.94Q18.72 8.42 18.73 8.75L18.73 8.75L18.73 8.75Q18.74 9.08 18.80 9.54L18.80 9.54L18.80 9.54Q18.86 10.00 18.89 10.04L18.89 10.04L19.78 10.20L19.78 10.68L17.91 10.64L16.19 10.68L16.19 10.20L16.94 10.04L17.01 9.39L17.01 9.39Q17.04 9.09 17.06 8.70L17.06 8.70L17.06 8.70Q17.09 8.32 17.09 7.94L17.09 7.94L17.09 6.40L17.09 6.22L17.09 6.06L17.09 6.06Q17.09 5.81 17.07 5.55L17.07 5.55L17.07 5.55Q17.06 5.28 17.03 5.03L17.03 5.03L16.95 4.19L16.07 4.02L16.07 3.54L16.07 3.54Q16.36 3.54 16.60 3.50L16.60 3.50L16.60 3.50Q16.94 3.43 17.11 3.41L17.11 3.41L17.11 3.41Q17.46 3.35 17.65 3.31L17.65 3.31L17.65 3.31Q17.84 3.26 18.16 3.17L18.16 3.17L18.58 3.17L18.53 5.24L18.53 5.24Q18.86 4.24 19.56 3.72L19.56 3.72L19.56 3.72Q19.90 3.48 20.24 3.35L20.24 3.35L20.24 3.35Q20.58 3.22 20.93 3.22L20.93 3.22L20.93 3.22Q21.08 3.22 21.21 3.24L21.21 3.24L21.21 3.24Q21.35 3.26 21.51 3.31L21.51 3.31L21.51 3.31Q21.66 3.35 21.76 3.43L21.76 3.43L21.34 4.48L21.11 5.27L21.11 5.27Q20.64 5.16 20.62 5.05L20.62 5.05L20.62 5.05Q20.62 4.91 20.65 4.84L20.65 4.84L20.65 4.84Q20.65 4.55 20.56 4.52L20.56 4.52L20.56 4.52Q20.47 4.48 20.31 4.48L20.31 4.48L20.31 4.48Q19.67 4.48 19.19 5.23L19.19 5.23L19.19 5.23Q18.72 5.98 18.72 7.08L18.72 7.08ZM24.99 4.21L24.99 8.03L24.99 8.03Q24.99 8.91 25.18 9.29L25.18 9.29L25.18 9.29Q25.34 9.67 25.83 9.67L25.83 9.67L25.83 9.67Q26.07 9.67 26.36 9.54L26.36 9.54L26.36 9.54Q26.59 9.41 26.80 9.22L26.80 9.22L27.24 9.71L27.24 9.71Q27.09 9.98 26.55 10.41L26.55 10.41L26.55 10.41Q26.00 10.84 25.18 10.84L25.18 10.84L25.18 10.84Q24.34 10.84 23.83 10.35L23.83 10.35L23.83 10.35Q23.35 9.85 23.35 9.02L23.35 9.02L23.35 4.21L22.40 4.21L22.40 3.72L23.35 3.42L23.29 1.85L25.05 1.49L24.99 3.42L26.93 3.35L26.55 4.25L24.99 4.21ZM32.93 6.87L32.93 6.87L32.44 6.87L32.44 6.87Q31.80 6.87 31.27 7.02L31.27 7.02L31.27 7.02Q30.74 7.17 30.36 7.45L30.36 7.45L30.36 7.45Q29.61 7.91 29.61 8.69L29.61 8.69L29.61 8.69Q29.61 9.04 29.95 9.35L29.95 9.35L29.95 9.35Q30.30 9.65 30.87 9.65L30.87 9.65L30.87 9.65Q31.82 9.65 32.38 8.85L32.38 8.85L32.38 8.85Q32.93 8.04 32.93 6.87ZM33.10 9.04L33.10 9.04L33.10 9.04Q32.41 10.23 31.67 10.54L31.67 10.54L31.67 10.54Q30.93 10.85 30.17 10.85L30.17 10.85L30.17 10.85Q29.14 10.85 28.51 10.28L28.51 10.28L28.51 10.28Q27.87 9.70 27.87 8.89L27.87 8.89L27.87 8.89Q27.87 7.58 29.21 6.83L29.21 6.83L29.21 6.83Q30.55 6.09 32.93 6.09L32.93 6.09L32.93 5.35L32.93 5.35Q32.93 4.65 32.58 4.41L32.58 4.41L32.58 4.41Q32.23 4.17 31.43 4.17L31.43 4.17L31.43 4.17Q30.62 4.17 30.10 4.36L30.10 4.36L30.10 4.36Q29.80 4.47 29.61 4.55L29.61 4.55L29.61 4.55Q29.57 4.56 29.53 4.59L29.53 4.59L29.53 5.28L29.05 5.43L28.35 3.85L29.32 3.54L29.32 3.54Q30.29 3.22 31.77 3.22L31.77 3.22L31.77 3.22Q34.05 3.22 34.38 4.58L34.38 4.58L34.38 4.58Q34.71 5.93 34.71 9.58L34.71 9.58L34.71 9.81L35.43 10.18L35.43 10.68L34.43 10.66L34.02 10.65L33.23 10.69L33.23 10.69Q33.21 10.63 33.18 10.53L33.18 10.53L33.18 10.53Q33.16 10.43 33.16 10.21L33.16 10.21L33.16 10.21Q33.16 9.97 33.15 9.68L33.15 9.68L33.15 9.68Q33.14 9.39 33.10 9.04ZM36.82 1.22L35.94 1.05L35.94 0.56L38.10 0.20L38.72 0.20L38.62 1.25L38.59 2.12L38.59 7.94L38.59 7.94Q38.59 8.35 38.60 8.72L38.60 8.72L38.60 8.72Q38.62 9.08 38.66 9.53L38.66 9.53L38.66 9.53Q38.71 9.98 38.74 10.04L38.74 10.04L39.49 10.20L39.49 10.68L37.77 10.64L36.05 10.68L36.05 10.20L36.79 10.04L36.79 10.04Q36.82 10.02 36.85 9.84L36.85 9.84L36.85 9.84Q36.88 9.66 36.88 9.39L36.88 9.39L36.88 9.39Q36.90 9.09 36.92 8.70L36.92 8.70L36.92 8.70Q36.95 8.32 36.95 7.94L36.95 7.94L36.95 3.42L36.95 3.42Q36.95 3.13 36.93 2.78L36.93 2.78L36.93 2.78Q36.91 2.42 36.90 1.99L36.90 1.99L36.90 1.99Q36.90 1.73 36.88 1.53L36.88 1.53L36.88 1.53Q36.85 1.32 36.82 1.22L36.82 1.22Z"></path>
    </g>
    <g id="11b35688-ca0a-4da3-917f-265e18da0977" transform="matrix(2.8125,0,0,2.8125,0,0)"
       stroke="none" fill="#193eb8">
        <path d="M9.382 8.675h13.943v13.943L32 31.293V0H.707zM22.618 23.325H8.675V9.382L0 .707V32h31.293z"></path>
    </g>
</svg>