<svg width="101" height="101" viewBox="0 0 101 101" fill="none" xmlns="http://www.w3.org/2000/svg">
<path d="M100.9 50.4318C100.9 22.8318 78.5001 0.431763 50.9001 0.431763C78.5001 0.431763 100.9 22.8318 100.9 50.4318C100.9 78.0318 78.5001 100.432 50.9001 100.432C78.5001 100.432 100.9 78.0318 100.9 50.4318Z" fill="url(#paint0_linear)"/>
<path d="M0.900146 50.4318C0.900146 22.8318 23.3001 0.431763 50.9001 0.431763C23.3001 0.431763 0.900146 22.8318 0.900146 50.4318C0.900146 78.0318 23.3001 100.432 50.9001 100.432C23.3001 100.432 0.900146 78.0318 0.900146 50.4318Z" fill="url(#paint1_linear)"/>
<path d="M0.900146 50.4318C0.900146 22.8318 23.3001 0.431763 50.9001 0.431763C23.3001 0.431763 0.900146 22.8318 0.900146 50.4318C0.900146 78.0318 23.3001 100.432 50.9001 100.432C23.3001 100.432 0.900146 78.0318 0.900146 50.4318Z" fill="url(#paint2_linear)"/>
<path d="M50.9001 100.432C78.5144 100.432 100.9 78.046 100.9 50.4318C100.9 22.8175 78.5144 0.431763 50.9001 0.431763C23.2859 0.431763 0.900146 22.8175 0.900146 50.4318C0.900146 78.046 23.2859 100.432 50.9001 100.432Z" fill="url(#paint3_linear)"/>
<path d="M50.9001 100.432C78.5144 100.432 100.9 78.046 100.9 50.4318C100.9 22.8175 78.5144 0.431763 50.9001 0.431763C23.2859 0.431763 0.900146 22.8175 0.900146 50.4318C0.900146 78.046 23.2859 100.432 50.9001 100.432Z" fill="url(#paint4_linear)"/>
<path d="M52.2943 44.2028C51.7367 44.2028 51.1991 44.302 50.7013 44.4806C49.6261 42.8734 47.7943 41.8218 45.7235 41.8218C44.9668 41.8218 44.25 41.9607 43.5929 42.2187C42.3385 39.183 39.3518 37.0599 35.8673 37.0599C33.1593 37.0599 30.75 38.3496 29.2168 40.3337C28.5797 40.1353 27.9027 40.0361 27.2058 40.0361C25.9712 40.0361 24.8164 40.3536 23.8208 40.929C22.4668 39.5996 20.615 38.7663 18.5443 38.7663C15.0996 38.7663 12.2124 41.0679 11.3164 44.2226C11.1372 44.2028 10.958 44.183 10.7788 44.183C8.13053 44.183 6 46.306 6 48.9449C6 49.2822 6.03982 49.5996 6.09956 49.9171H56.9735C57.0332 49.5996 57.073 49.2822 57.073 48.9449C57.073 46.3258 54.9226 44.2028 52.2943 44.2028Z" fill="white" fill-opacity="0.3"/>
<path d="M59.5 47.36C59.5 42.06 55.2 37.86 50 37.86C44.8 37.86 40.5 42.16 40.5 47.36H59.5Z" fill="#FF6556"/>
<path d="M59.5 49.36H40.5V60.56H59.5V49.36Z" fill="white"/>
<path d="M62.4001 49.3599C62.4001 50.6599 61.4001 51.6599 60.1001 51.6599H39.9001C38.6001 51.6599 37.6001 50.6599 37.6001 49.3599C37.6001 48.0599 38.6001 47.0599 39.9001 47.0599H60.1001C61.4001 47.0599 62.4001 48.0599 62.4001 49.3599Z" fill="#1F73B9"/>
<path d="M50.9001 34.9598H49.1001V40.2598H50.9001V34.9598Z" fill="#FF6556"/>
<path d="M51.9001 34.6599C51.9001 35.6599 51.1001 36.5599 50.0001 36.5599C49.0001 36.5599 48.1001 35.6599 48.1001 34.6599C48.1001 33.6599 48.9001 32.7599 50.0001 32.7599C51.0001 32.7599 51.9001 33.6599 51.9001 34.6599Z" fill="#FF6556"/>
<path d="M39.5999 62.7599L39.1094 71.1598L38.8906 74.2631L38.7969 76.2162L38.707 77.4606L38.0999 86.1599L40.0156 88.9662L39.2031 89.6849L37.6094 92.4037L37.1062 98.5912C41.2062 99.6912 45.6 100.432 50 100.432C54.4 100.432 58.6422 100.074 62.7422 98.974L60 62.7599H39.5999Z" fill="white"/>
<path d="M60.1001 64.4598L39.1001 71.1598L38.7031 77.4645L60.6001 70.5598L60.1001 64.4598Z" fill="#FF6556"/>
<path d="M62.4001 62.7598C62.4001 64.0598 61.4001 65.0598 60.1001 65.0598H39.9001C38.6001 65.0598 37.6001 64.0598 37.6001 62.7598C37.6001 61.4598 38.6001 60.4598 39.9001 60.4598H60.1001C61.4001 60.4598 62.4001 61.5598 62.4001 62.7598Z" fill="#1F73B9"/>
<path d="M52.9001 56.3599C52.9001 57.9599 51.6001 59.2599 50.0001 59.2599C48.4001 59.2599 47.1001 57.9599 47.1001 56.3599C47.1001 54.7599 48.4001 53.4599 50.0001 53.4599C51.6001 53.3599 52.9001 54.6599 52.9001 56.3599Z" fill="#F9C83E"/>
<path d="M82.4314 25.2107C81.2765 21.6393 77.8916 19.0599 73.9292 19.0599C70.2655 19.0599 67.1195 21.2425 65.7257 24.3576C65.2876 24.2782 64.8296 24.2187 64.3717 24.2187C60.8473 24.2187 58 27.056 58 30.5679H88.3451C88.0863 27.5718 85.5774 25.2107 82.4912 25.2107C82.4712 25.2107 82.4513 25.2107 82.4314 25.2107Z" fill="white" fill-opacity="0.3"/>
<path d="M61.7001 84.8599L61.2001 78.7599L38.1001 86.0599L37.6001 92.4599L61.7001 84.8599Z" fill="#FF6556"/>
<path d="M52.7999 100.432V95.5317C52.7999 94.0317 51.6 92.7318 50 92.7318C48.5 92.7318 47.2 93.9317 47.2 95.5317V100.432H52.7999Z" fill="#1F73B9"/>
<defs>
<linearGradient id="paint0_linear" x1="37.4646" y1="-16.9634" x2="91.6177" y2="105.736" gradientUnits="userSpaceOnUse">
<stop stop-color="white" stop-opacity="0"/>
<stop offset="1" stop-color="#ACE7F9" stop-opacity="0.7"/>
</linearGradient>
<linearGradient id="paint1_linear" x1="18.2321" y1="13.3376" x2="57.2564" y2="101.758" gradientUnits="userSpaceOnUse">
<stop stop-color="white" stop-opacity="0"/>
<stop offset="1" stop-color="#ACE7F9" stop-opacity="0.7"/>
</linearGradient>
<linearGradient id="paint2_linear" x1="10.1745" y1="-4.91904" x2="64.3277" y2="117.78" gradientUnits="userSpaceOnUse">
<stop stop-color="white" stop-opacity="0"/>
<stop offset="1" stop-color="#ACE7F9" stop-opacity="0.7"/>
</linearGradient>
<linearGradient id="paint3_linear" x1="31.8771" y1="7.31536" x2="70.9015" y2="95.736" gradientUnits="userSpaceOnUse">
<stop stop-color="white" stop-opacity="0"/>
<stop offset="1" stop-color="#ACE7F9" stop-opacity="0.7"/>
</linearGradient>
<linearGradient id="paint4_linear" x1="23.8196" y1="-10.9412" x2="77.9727" y2="111.758" gradientUnits="userSpaceOnUse">
<stop stop-color="#CDE5FA" stop-opacity="0.276042"/>
<stop offset="0.625" stop-color="#4AA1EC"/>
<stop offset="0.994792" stop-color="#1984E5"/>
</linearGradient>
</defs>
</svg>
